<?xml version="1.0" standalone="no"?>
<!DOCTYPE svg PUBLIC "-//W3C//DTD SVG 20010904//EN"
 "http://www.w3.org/TR/2001/REC-SVG-20010904/DTD/svg10.dtd">
<svg version="1.0" xmlns="http://www.w3.org/2000/svg"
 width="300.000000pt" height="1279.000000pt" viewBox="0 0 300.000000 1279.000000"
 preserveAspectRatio="xMidYMid meet">
<metadata>
Created by potrace 1.16, written by Peter Selinger 2001-2019
</metadata>
<g transform="translate(0.000000,1279.000000) scale(0.100000,-0.100000)"
fill="#000000" stroke="none">
<path d="M355 12663 c-10 -174 -1 -300 29 -408 107 -378 115 -452 92 -936 -9
-200 -18 -481 -19 -624 -2 -228 0 -267 16 -320 64 -206 190 -333 454 -456 59
-28 122 -61 140 -75 48 -36 79 -97 107 -209 48 -186 115 -313 217 -412 30 -28
182 -144 338 -258 363 -264 440 -326 581 -471 139 -143 216 -236 315 -384 126
-185 183 -311 336 -740 l34 -95 3 107 c3 106 2 108 -44 230 -181 484 -455 833
-939 1200 -55 41 -197 147 -315 235 -344 255 -378 306 -421 633 -22 173 -44
231 -97 267 -18 12 -85 38 -150 58 -280 88 -396 201 -437 427 -14 75 -16 184
-13 810 3 811 6 772 -72 1022 -48 154 -66 250 -76 409 l-7 117 -32 0 -33 0 -7
-127z"/>
<path d="M725 12683 c91 -181 109 -251 180 -695 85 -532 100 -604 146 -727 57
-153 114 -217 158 -177 26 24 35 64 81 361 73 470 106 616 184 817 78 203 158
341 270 464 25 29 46 55 46 58 0 3 -252 6 -559 6 l-560 0 54 -107z m885 81 c0
-3 -31 -72 -69 -153 -110 -236 -190 -472 -256 -761 -82 -357 -92 -390 -120
-390 -21 0 -37 40 -69 170 -38 155 -93 810 -69 833 3 4 31 -30 61 -75 67 -103
90 -128 117 -128 33 0 74 51 200 250 65 102 134 202 153 223 33 34 52 46 52
31z"/>
<path d="M1793 12718 c-207 -215 -319 -458 -402 -873 -47 -234 -65 -413 -65
-640 1 -140 5 -222 16 -275 11 -52 13 -81 6 -96 -28 -62 -155 -57 -221 9 -45
45 -83 122 -172 342 -97 240 -126 305 -135 305 -4 0 -13 -20 -20 -45 -9 -33
-11 -109 -7 -287 4 -209 8 -259 30 -358 47 -214 82 -296 162 -369 112 -103
256 -127 535 -90 41 6 195 37 342 70 407 90 431 93 683 93 187 0 236 -3 325
-22 58 -12 111 -22 118 -22 9 0 12 29 12 113 0 75 -4 119 -12 129 -16 21 -205
80 -358 112 -63 14 -268 52 -455 86 -435 79 -513 109 -580 225 -70 118 -73
393 -9 684 66 294 191 515 362 638 107 76 167 97 282 98 84 0 101 -3 145 -27
59 -30 134 -107 164 -167 12 -23 48 -111 81 -197 75 -196 161 -363 223 -430
41 -46 132 -114 150 -114 4 0 7 189 7 419 l0 419 -142 171 -143 171 -426 0
-426 0 -70 -72z"/>
<path d="M2055 12411 c-84 -30 -117 -51 -181 -115 -186 -188 -294 -508 -294
-876 0 -198 35 -292 137 -361 68 -47 126 -62 535 -134 437 -77 564 -107 734
-172 11 -4 14 5 14 45 0 48 -1 51 -32 61 -18 5 -78 24 -133 41 -55 18 -263 74
-462 125 -198 52 -383 105 -410 119 -60 31 -116 88 -142 146 -53 116 3 357 94
406 18 9 39 14 48 11 26 -10 48 -65 63 -155 25 -154 65 -236 136 -280 39 -24
809 -312 834 -312 2 0 4 19 4 43 l0 43 -107 38 c-147 53 -413 157 -495 194
-76 35 -148 96 -184 158 -14 23 -38 97 -55 163 -51 209 -97 281 -180 281 -76
0 -118 -40 -178 -170 -54 -118 -76 -305 -50 -420 14 -61 61 -132 114 -172 25
-18 45 -37 45 -42 0 -15 -83 4 -127 29 -58 35 -118 106 -134 162 -9 32 -14 99
-13 203 0 134 4 170 27 263 73 295 219 502 380 541 45 11 108 -12 147 -53 41
-43 58 -92 130 -372 59 -229 82 -281 155 -348 64 -58 479 -301 515 -301 6 0
10 39 10 99 l0 99 -85 46 c-217 115 -347 276 -410 507 -64 236 -115 357 -172
411 -69 65 -179 85 -278 49z"/>
<path d="M2475 10403 c-403 -51 -744 -219 -962 -473 -139 -162 -176 -324 -112
-495 52 -142 110 -203 371 -395 170 -125 193 -139 206 -126 19 19 21 17 -153
216 -168 193 -197 246 -203 371 -10 210 103 384 361 556 285 191 565 238 990
168 l27 -4 0 79 c0 90 6 84 -105 100 -66 9 -355 12 -420 3z"/>
<path d="M2445 10135 c-217 -41 -365 -105 -489 -210 -59 -51 -84 -81 -103
-122 -16 -35 -22 -58 -16 -64 7 -7 37 -2 87 13 98 28 102 24 79 -73 -10 -44
-17 -111 -17 -164 1 -172 75 -322 277 -568 412 -502 448 -550 612 -817 59 -96
112 -179 117 -185 6 -6 8 20 6 75 -4 82 -7 91 -75 233 -40 81 -108 214 -151
295 -195 359 -264 524 -264 632 -1 84 22 139 79 189 79 70 205 95 341 68 l72
-14 0 328 c0 378 14 336 -118 370 -104 28 -325 35 -437 14z"/>
<path d="M693 8895 c-30 -22 -29 -46 5 -78 39 -37 62 -43 287 -72 293 -37 358
-51 439 -92 39 -20 134 -61 212 -93 223 -89 377 -188 549 -352 230 -219 348
-409 424 -683 71 -256 93 -448 59 -511 -34 -63 -126 -94 -279 -94 -161 0 -320
40 -458 116 -158 86 -243 171 -449 446 -286 381 -385 456 -620 466 -119 5
-193 -5 -302 -40 -266 -85 -446 -269 -526 -533 -23 -78 -27 -113 -31 -265 -8
-272 7 -359 161 -900 52 -184 160 -569 240 -856 161 -574 194 -679 328 -1018
50 -127 113 -301 140 -386 86 -270 107 -314 159 -325 166 -37 413 285 480 628
31 154 23 258 -41 547 -29 130 -55 271 -57 315 -6 109 10 134 115 181 140 62
185 88 243 142 119 109 144 234 81 397 -18 44 -32 86 -32 93 0 30 52 32 379
17 504 -23 580 -32 779 -91 23 -7 23 -6 20 82 l-3 88 -30 8 c-16 4 -138 24
-270 44 -314 47 -482 80 -511 99 -34 22 -30 45 21 110 51 66 49 74 -19 100
-36 14 -96 17 -392 18 -339 2 -350 1 -396 -20 -73 -33 -90 -69 -85 -173 5 -92
16 -132 83 -286 32 -75 44 -115 44 -151 0 -70 -24 -89 -131 -109 -162 -29
-175 -45 -165 -195 9 -141 29 -236 97 -446 134 -418 156 -519 145 -653 -12
-147 -61 -276 -149 -396 -72 -98 -147 -118 -201 -54 -13 16 -64 125 -114 242
-220 518 -254 613 -352 988 -81 312 -112 420 -240 845 -254 841 -276 948 -251
1187 34 315 159 506 416 635 243 123 469 103 678 -57 76 -59 146 -142 281
-333 54 -76 122 -166 152 -201 75 -89 195 -176 338 -247 251 -123 463 -145
735 -77 l84 21 19 -22 c23 -30 23 -87 -1 -127 -24 -40 -96 -75 -226 -110 -93
-26 -113 -28 -305 -28 -174 0 -220 3 -306 22 -210 45 -385 119 -599 254 -148
93 -250 148 -276 148 -29 0 -59 -36 -59 -71 0 -90 153 -214 376 -304 233 -94
402 -127 793 -155 347 -25 661 -55 789 -76 l32 -5 0 286 0 285 -45 57 c-68 89
-130 205 -186 348 -128 329 -260 542 -474 764 -336 349 -732 567 -1250 686
-145 34 -321 44 -352 20z"/>
<path d="M458 7696 c-232 -83 -370 -387 -329 -726 22 -182 102 -484 266 -1005
107 -341 145 -468 239 -811 117 -423 240 -732 373 -931 79 -120 109 -130 178
-60 55 55 86 137 93 243 6 105 0 132 -119 504 -203 636 -309 941 -421 1220
-247 609 -314 832 -325 1070 -6 152 9 233 67 359 22 48 43 102 46 119 7 37 -5
40 -68 18z m201 -1952 c29 -48 104 -224 151 -350 77 -206 160 -537 160 -631
l-1 -48 -24 40 c-27 43 -59 141 -185 560 -73 242 -133 465 -125 465 2 0 12
-16 24 -36z"/>
<path d="M870 7671 c-131 -42 -238 -168 -275 -322 -22 -95 -30 -259 -16 -363
22 -161 95 -342 186 -463 41 -52 123 -113 154 -113 60 0 131 92 131 171 0 46
-2 48 -96 140 -114 111 -167 188 -196 282 -23 76 -20 124 12 186 24 47 91 109
127 117 16 3 33 7 40 9 20 7 125 -24 162 -48 20 -12 101 -78 181 -146 289
-248 437 -318 697 -328 72 -3 143 -3 157 1 39 10 31 34 -16 55 -213 91 -389
197 -500 299 -34 32 -112 116 -173 187 -145 167 -267 285 -330 315 -39 20 -68
25 -135 27 -47 1 -96 -1 -110 -6z"/>
<path d="M2806 5644 c-189 -46 -357 -205 -471 -447 -51 -109 -74 -179 -195
-597 -151 -521 -196 -667 -281 -896 -44 -120 -83 -239 -86 -264 -8 -66 12
-125 59 -175 42 -47 59 -54 422 -189 297 -110 334 -144 606 -541 67 -99 127
-184 131 -190 5 -5 9 36 9 96 l0 106 -117 169 c-65 92 -145 197 -177 232 -85
90 -204 165 -421 262 -157 71 -197 93 -241 135 -93 89 -92 108 21 459 93 291
146 475 231 796 42 157 93 326 113 377 129 312 310 488 518 501 l73 5 0 88 0
89 -67 -1 c-38 0 -94 -7 -127 -15z"/>
<path d="M2920 5360 c-106 -18 -197 -80 -282 -191 -116 -152 -172 -287 -232
-555 -76 -346 -187 -901 -193 -968 -10 -125 18 -164 182 -256 190 -106 349
-248 497 -445 50 -66 95 -124 100 -129 4 -6 8 567 8 1272 0 1215 -1 1282 -17
1281 -10 -1 -38 -5 -63 -9z"/>
<path d="M2847 1150 c-231 -80 -401 -171 -561 -298 -91 -72 -311 -286 -482
-470 -119 -127 -134 -146 -134 -177 0 -44 22 -55 131 -62 106 -8 182 17 344
113 72 42 163 92 203 111 65 32 79 35 141 31 59 -3 76 -9 127 -42 33 -22 130
-110 216 -198 87 -87 160 -158 163 -158 3 0 5 49 5 108 l0 109 -158 155 c-139
137 -167 159 -242 196 -61 31 -105 45 -157 51 -84 11 -93 15 -93 45 0 97 306
317 573 411 l77 28 0 48 c0 27 -3 49 -7 48 -5 0 -70 -22 -146 -49z"/>
</g>
</svg>
