<svg xmlns="http://www.w3.org/2000/svg" viewBox="0.01 0 738.21 536.9">   <path d="M342.79 187.52c-1.03 1.42-2.2 1.92-3.22 2.57-8.48 5.33-16.97 10.65-25.47 15.93-11.77 7.31-23.56 14.59-35.34 21.88-5.72 3.54-11.55 6.87-17.62 9.78-2.73 1.31-5.49 2.5-8.44 3.2-9.7 2.3-19.07 1.34-28.08-2.91-3.38-1.59-6.37-3.76-8.97-6.46-5.45-5.63-9.41-12.12-11.32-19.77-2.08-8.31-1.91-16.6.67-24.77 2.24-7.12 6.34-13.04 12.01-17.87 1.77-1.51 3.67-2.89 5.59-4.2 23.76-16.33 48.11-31.72 72.99-46.26.94-.55 1.92-1.06 2.9-1.54.71-.34 1.8-.07 2.24.56.78 1.13 1.53 2.28 2.24 3.45 8 13.28 15.99 26.57 23.98 39.85 4.53 7.52 9.06 15.04 13.58 22.57.77 1.28 1.49 2.6 2.28 3.98Zm-97.04 1.95c.04.81.05 1.23.09 1.63.04.41.09.82.2 1.22 1.33 5.02 4.49 8.39 9.34 10.15 1.97.71 3.98.8 6.04.13 2.61-.84 5.21-1.68 7.6-3.09 6.61-3.91 13.22-7.81 19.83-11.71.35-.21.69-.46 1.02-.7 1.1-.81 1.35-1.69.75-2.84-.51-.97-1.05-1.93-1.61-2.87-3.16-5.3-6.33-10.59-9.5-15.89-.35-.59-.71-1.17-1.08-1.75-1.62-2.54-2.69-1.99-4.43-1.06-.48.26-.93.58-1.39.88-5.16 3.38-10.33 6.75-15.48 10.14a65.69 65.69 0 0 0-3.38 2.35c-3.8 2.78-6.2 6.53-7.55 10.99-.27.9-.34 1.87-.44 2.43Zm347 121.54c-1.06-.16-2.84-.33-4.58-.71-10.85-2.38-21.77-4.38-32.7-6.34-3.64-.65-7.27-1.38-10.92-2.01-1.07-.19-2.17-.25-3.26-.23-1.37.02-2.26 1.39-1.71 2.61.56 1.24 1.18 2.47 1.88 3.65 4.87 8.12 9.76 16.22 14.64 24.32.99 1.64 2 3.28 2.98 4.93.35.59.66 1.2.93 1.83.22.53.14 1.1-.2 1.56-.32.44-.66.88-1.07 1.23-7.84 6.68-16.06 12.86-24.84 18.26-.12.07-.24.14-.35.21-1.8 1.04-2.62.87-3.72-.93-3.06-5.04-6.09-10.1-9.13-15.15-10.06-16.68-20.12-33.36-30.17-50.03-.64-1.05-1.24-2.13-1.85-3.21-.25-.44-.12-1.19.25-1.49.53-.43 1.07-.86 1.62-1.27 2.97-2.21 5.94-4.42 8.93-6.62 5.73-4.24 11.47-8.48 17.21-12.71.77-.57 1.53-1.18 2.35-1.67 1.08-.65 2.27-.93 3.55-.73 3.52.54 7.05 1.06 10.57 1.6 6.64 1.01 13.28 2.02 19.92 3.04 4.61.7 9.21 1.4 13.82 2.11 1.5.24 2.99.43 4.48-.05.65-.21 1.11-.92.9-1.58-.24-.78-.47-1.58-.84-2.3-.5-.97-1.13-1.88-1.72-2.81-4.66-7.28-9.32-14.55-13.97-21.83-.66-1.04-1.3-2.1-1.85-3.2-.32-.64-.18-1.35.31-1.92.35-.42.74-.81 1.16-1.16 7.69-6.63 15.38-13.25 23.08-19.87.31-.27.65-.5.99-.74.44-.33 1.2-.25 1.48.16a52 52 0 0 1 1.56 2.41c12.97 21.49 25.94 42.98 38.9 64.47.35.59.7 1.18 1.03 1.78.75 1.38.64 2.1-.56 3.28-.99.95-2.02 1.85-3.04 2.78-4.25 3.9-8.5 7.78-12.73 11.69-1.21 1.12-2.32 2.34-3.55 3.43-2.58 2.3-5.64 3.29-9.79 3.23v-.02Zm-101.89 12.15c.57.55.92.78 1.14 1.11.92 1.37 1.82 2.75 2.67 4.15 2.07 3.39 4.11 6.81 6.17 10.22.28.47.57.94.83 1.42.69 1.28.51 2.45-.58 3.31-1.19.93-2.41 1.81-3.65 2.67-11.62 8.04-23.25 16.06-34.87 24.1a94.72 94.72 0 0 0-3.66 2.66c-.43.33-.79.76-1.13 1.19-.92 1.17-.48 3.16.86 3.95.5.29 1.08.34 1.57.1.98-.49 1.93-1.03 2.85-1.62 9.91-6.41 19.8-12.81 29.69-19.26 3.91-2.55 7.75-5.19 11.63-7.77.8-.53 1.62-1.04 2.43-1.54.41-.25 1.14-.05 1.45.39.16.22.32.44.47.68 3.9 6.3 7.81 12.59 11.7 18.89.14.23.21.5.32.74-.07.78-.64 1.17-1.2 1.56-3.81 2.68-7.61 5.39-11.45 8.04-21.93 15.1-44.48 29.21-67.57 42.45-3.47 1.99-3.21 2.13-5.27-1.29l-38.91-64.47c-.64-1.05-1.23-2.14-1.79-3.23-.09-.18.02-.55.16-.73.25-.32.57-.59.91-.81 1.38-.89 2.78-1.77 4.17-2.64 24.6-15.5 49.2-31.01 73.81-46.49 4.4-2.77 3.74-2.92 6.38 1.38 2.79 4.56 5.58 9.13 8.37 13.7.21.35.4.72.58 1.09.21.41.07 1.17-.33 1.48-1.31 1-2.59 2.03-3.96 2.94-9.49 6.29-18.99 12.56-28.49 18.83-3.66 2.42-7.34 4.81-10.99 7.25-.79.53-1.57 1.1-2.24 1.78-.62.62-.74 1.44-.34 2.28.25.53.63.86 1.22.98.7.14 1.4.09 2-.26 1.31-.74 2.6-1.53 3.86-2.36 12.52-8.17 25.03-16.36 37.55-24.53 1.15-.75 2.31-1.46 3.67-2.31l-.02-.02Zm52.57-268.32c-.41 1.11-.83 2.11-1.16 3.14-3.85 11.86-7.69 23.74-11.53 35.61-.42 1.3-.85 2.61-1.31 3.9-.44 1.22-1.33 2.07-2.49 2.6-.5.23-1.02.4-1.53.59l-27.03 9.9c-.51.19-1.03.44-1.56.48-.36.03-.88-.16-1.08-.44-.72-1-1.35-2.06-1.99-3.12-7.98-13.29-15.95-26.58-23.93-39.87-4.87-8.12-9.76-16.22-14.62-24.34-.62-1.04-1.44-2.01-1.62-3.43.55-.32 1.1-.72 1.71-.99 1.64-.7 3.29-1.37 4.96-1.99 6.7-2.45 13.4-4.87 20.1-7.3.77-.28 1.55-.58 2.35-.74.85-.17 1.65.02 2.17.8.61.91 1.19 1.84 1.76 2.77 4.71 7.73 9.41 15.47 14.13 23.19.71 1.16 1.27 2.45 2.45 3.25.17.11.67.05.73-.06.42-.86.84-1.72 1.11-2.63 1.18-3.94 2.33-7.89 3.47-11.84l6.06-20.94c.15-.52.39-1.04.49-1.57.59-3.11 2.58-4.64 5.57-5.26 2.95-.61 5.86-1.41 8.79-2.15 6.11-1.55 12.22-3.11 18.33-4.66.4-.1.78-.25 1.18-.35 2.67-.65 3.59-.3 5.08 2.18 4.32 7.17 8.59 14.37 12.88 21.54 8.52 14.24 17.05 28.48 25.57 42.73.63 1.05 1.22 2.14 1.8 3.23.25.46-.05 1.23-.52 1.38-1.96.61-3.91 1.25-5.9 1.77-6.23 1.63-12.47 3.24-18.72 4.81-1.19.3-2.43.45-3.65.56-.69.06-1.38-.22-1.82-.8-.73-.99-1.43-2-2.07-3.06-4.95-8.22-9.88-16.46-14.83-24.7-.71-1.17-1.43-2.35-2.21-3.47-.21-.3-.66-.43-1.12-.72ZM181.17 259.05c-1.31.16-2.02 1.05-2.85 1.75-7.14 6-14.27 12.01-21.41 18.02-4.51 3.8-9.03 7.59-13.55 11.39-.42.35-.84.71-1.27 1.04-.8.62-1.39.48-2.03-.44-.08-.11-.17-.22-.24-.34l-8.64-14.01c-.14-.24-.31-.46-.43-.7-.87-1.7-.66-3.21.7-4.48.9-.84 1.85-1.63 2.79-2.43 10.8-9.11 21.6-18.23 32.39-27.34.73-.62 1.47-1.24 2.11-1.95.9-1 .55-2.57-.43-3.28-.47-.34-1.12-.5-1.53-.23-.9.62-1.82 1.23-2.65 1.93-7.06 5.88-14.11 11.78-21.16 17.68-4.63 3.88-9.23 7.78-13.86 11.66-.52.44-1.09.84-1.68 1.17-.18.1-.57 0-.75-.14-.32-.25-.59-.58-.8-.92-3.47-5.6-6.92-11.2-10.38-16.8-.14-.24-.28-.47-.41-.71-.28-.51-.22-1.14.17-1.51.79-.75 1.6-1.5 2.41-2.23 18.62-16.66 38.02-32.36 57.9-47.48 2.29-1.75 4.58-3.5 6.9-5.2 2.51-1.83 3.36-1.68 4.95.84 1.24 1.97 2.43 3.98 3.63 5.98 11.53 19.15 23.06 38.31 34.58 57.47.71 1.17 1.38 2.37 2 3.59.44.87.2 1.98-.55 2.63-1.14.99-2.31 1.94-3.5 2.87-5.63 4.39-11.35 8.65-16.88 13.16-9.57 7.8-19.03 15.74-28.51 23.64-5.69 4.74-11.35 9.53-17.02 14.29-1.05.88-2.12 1.74-3.21 2.58-1.56 1.2-1.97 1.15-2.9-.39-3.53-5.88-7.06-11.76-10.55-17.66-1.24-2.09-1.07-3.07.66-4.7.7-.66 1.43-1.27 2.16-1.91a1146.39 1146.39 0 0 1 32.64-27.68c.85-.7 1.69-1.4 2.52-2.13.41-.36.78-.77 1.14-1.19.88-1.03.93-2.38.13-3.39-.34-.43-.7-.85-1.1-1.22-.5-.46-1.05-.86-1.51-1.24Zm-15.78 192.54c.96-.4 1.69-.75 2.45-1.01 10.14-3.42 20.28-6.82 30.42-10.23 13.13-4.42 26.26-8.83 39.4-13.25 1.04-.35 2.08-.71 3.13-1.04 1.45-.45 2.04-.27 2.79.92 3.52 5.57 7.03 11.14 10.54 16.72.29.47.52.96.31 1.7-1.04.41-2.18.87-3.33 1.29-12.76 4.64-25.53 9.27-38.29 13.92-1.16.42-2.29.91-3.43 1.39-.43.18-.71.84-.64 1.4.19 1.44 1.24 2.35 2.53 2.04 1.33-.32 2.64-.73 3.93-1.19 7.63-2.7 15.25-5.42 22.87-8.15 5.3-1.9 10.6-3.76 15.86-5.76 3.5-1.33 4.18-.47 5.71 1.99 2.69 4.3 5.41 8.59 8.12 12.89.36.58.71 1.17 1.05 1.77.27.47.06 1.19-.44 1.4-2.26.99-4.5 2.02-6.81 2.9-7.94 3.04-15.91 6.02-23.86 9.03-3.34 1.26-6.67 2.54-10 3.8-1.29.49-2.51 1.09-3.54 2.05-.81.75-1.02 2.01-.45 3.01.77 1.35 2 1.92 3.46 1.43 3.26-1.08 6.5-2.18 9.73-3.34 10.59-3.81 21.16-7.64 31.74-11.45 1.16-.42 2.33-.8 3.52-1.1.69-.17 1.37.08 1.85.64.36.41.69.86.98 1.32 3.77 5.89 7.54 11.8 11.3 17.7.22.34.37.73.56 1.09.14.28-.09.95-.37 1.08-1.5.66-2.99 1.38-4.52 1.96-6.93 2.62-13.85 5.25-20.82 7.77-15.23 5.5-30.61 10.51-46.24 14.78-1.19.33-2.38.67-3.58.96-2.26.53-3.59.01-4.95-1.94-.63-.9-1.17-1.86-1.75-2.79-6.7-11.02-13.4-22.05-20.1-33.07-5.56-9.15-11.13-18.29-16.67-27.45-.92-1.52-1.99-2.97-2.47-5.15v.02Zm200.03-26.35c-.16.31-.36.99-.79 1.48-.53.61-1.19 1.15-1.88 1.57-1.04.65-2.15 1.21-3.26 1.75-12.59 6.1-25.19 12.18-37.78 18.28-1.6.78-3.16 1.65-4.73 2.5-.42.23-.63 1.03-.4 1.46.54.96 1.07 1.92 1.63 2.85 3.74 6.23 7.5 12.46 11.24 18.7.56.94 1.09 1.91 1.62 2.86.17.3-.03.9-.34 1.07-.6.33-1.19.67-1.82.95-4.26 1.9-8.51 3.82-12.79 5.66-4.91 2.11-9.85 4.17-14.78 6.25-.76.32-1.51.66-2.28.95-1.49.58-2.37.33-3.18-.94-1.03-1.62-2.02-3.27-3.02-4.91-4.61-7.63-9.21-15.28-13.82-22.91-7.8-12.92-15.61-25.84-23.4-38.76-.49-.82-.94-1.67-1.33-2.54-.07-.17.09-.59.26-.7.81-.5 1.63-1 2.5-1.39 6.84-3.17 13.7-6.33 20.54-9.49 19.05-8.81 38.09-17.62 57.14-26.43 1.37-.63 2.75-1.25 4.12-1.86.46-.2 1.24-.02 1.5.34.24.33.48.67.7 1.02 2.77 4.58 5.52 9.17 8.3 13.73 1.55 2.54.44 4.86-1.46 6.05-1.16.72-2.41 1.3-3.65 1.9-12.96 6.29-25.92 12.56-38.89 18.84-1.11.54-2.2 1.11-3.28 1.72-.75.42-.96 1.34-.56 2.14.12.24.25.49.41.71.55.7 1.47 1.05 2.18.77 1.15-.45 2.3-.91 3.41-1.44 5.2-2.47 10.41-4.93 15.6-7.45 8.14-3.95 16.27-7.95 24.41-11.9 1.11-.54 2.25-1.02 3.4-1.46 1.89-.73 3.51-.2 4.86 1.22.56.59 1.05 1.27 1.48 1.96 2.43 3.98 4.82 7.99 7.23 11.98.57.95 1.02 1.94.9 3.45v.02ZM137.2 458.23c8.3.14 15.95 2.39 22.87 7.03 4.83 3.24 8.97 7.23 12.6 11.75 4.93 6.14 8.74 12.96 11.8 20.2 1.4 3.31 2.11 6.78 2.07 10.42-.04 3.95-1.06 7.59-3 10.99-3.65 6.37-9.04 10.57-16 12.79-3.67 1.17-7.46 1.85-11.27 2.34-6.13.78-12.25 1.54-18.42 1.94-4.38.28-8.75.74-13.12 1.11-.55.05-1.1.1-1.64.1-2.5 0-4.54-.94-5.95-3.05-.46-.69-.89-1.39-1.32-2.09-12.52-20.82-25.04-41.63-37.54-62.45-.63-1.05-1.14-2.17-1.7-3.27-.15-.29.22-.83.59-.92.4-.09.8-.22 1.2-.25 1.23-.1 2.47-.16 3.7-.23 5.07-.31 10.15-.47 15.2-.95 5.32-.51 10.63-1.25 15.92-2.04 5.02-.75 10-1.75 15.01-2.53 2.98-.46 5.96-1 9.01-.89Zm-3.86 25.56c-.61.04-1.16.05-1.7.1-5.45.51-10.9 1.03-16.35 1.55-.27.03-.54.1-.8.16-.52.1-.94.79-.74 1.23.17.37.31.77.51 1.11 4.04 6.67 8.08 13.34 12.13 20.01.28.47.58.94.92 1.36.72.88 1.66 1.44 2.82 1.47.95.03 1.92 0 2.86-.11 2.31-.27 4.62-.59 6.92-.92 1.63-.22 3.26-.44 4.87-.74 3.62-.66 5.78-2.89 6.49-6.49.5-2.51.13-4.92-.7-7.26-2.47-6.99-9.62-11.7-17.22-11.47ZM344.66 90.22c.67-.46 1.32-.95 2.01-1.37 5.86-3.57 12-6.63 18.11-9.73 18.48-9.35 37.27-18.04 56.28-26.23 6.41-2.76 12.99-5.16 19.5-7.7.51-.2 1.04-.45 1.57-.45s1.11.17 1.51.47c.53.4.98.96 1.33 1.54 3.37 5.65 6.71 11.32 10.05 17 .27.47.49.98.64 1.5.06.2-.08.6-.25.71-.7.43-1.42.82-2.17 1.15-7.29 3.17-14.58 6.33-21.88 9.5-1.01.44-2.01.87-2.99 1.37-1.22.62-1.56 1.58-.95 2.71.72 1.33 1.48 2.63 2.25 3.92 6.77 11.29 13.56 22.57 20.32 33.86 1.62 2.7 3.22 5.43 4.81 8.15.29.49.15 1.18-.32 1.46-1.65.98-3.25 2.06-4.98 2.87-9.05 4.27-18.13 8.47-27.21 12.68-.49.23-1.01.46-1.53.57-.99.21-1.93.06-2.6-.8-.5-.65-.96-1.34-1.38-2.04-6.51-10.81-13.04-21.6-19.5-32.45-1.82-3.06-3.42-6.25-5.11-9.39-.52-.96-1.02-1.94-1.55-2.9-.23-.42-.94-.64-1.45-.43-1.14.48-2.28.95-3.37 1.5-5.15 2.58-10.29 5.17-15.43 7.78-3.18 1.61-6.34 3.25-9.52 4.87-.61.31-1.24.57-1.88.82-.54.21-1.55-.07-1.9-.49-.26-.32-.55-.62-.76-.97-3.75-6.06-7.51-12.13-11.24-18.2-.2-.33-.26-.76-.42-1.28ZM94.79 300.76c-1.05.2-1.57.87-2.14 1.46-2.98 3.04-6 6.03-8.88 9.16-4.94 5.34-9.78 10.76-14.68 16.14-.83.91-1.7 1.79-2.56 2.67-.26.27-.91.26-1.11 0-.33-.43-.72-.83-1-1.29-3.23-5.26-6.46-10.52-9.67-15.79-.28-.47-.55-.96-.68-1.48-.09-.36-.02-.84.14-1.18.24-.48.59-.92.96-1.32 13.47-14.83 26.87-29.72 41.5-43.43 2.7-2.53 5.32-5.15 8.01-7.7.67-.64 1.3-1.43 2.55-1.43.62.95 1.32 1.95 1.95 3 5.46 9.04 10.91 18.09 16.36 27.13 7.08 11.75 14.17 23.49 21.25 35.24.85 1.41 1.72 2.81 2.45 4.28.45.9.34 1.88-.38 2.69-.36.41-.75.8-1.15 1.18-6.62 6.37-13.25 12.74-19.88 19.11-.39.37-.84.7-1.26 1.04-.29.23-.88.15-1.09-.16-.75-1.15-1.52-2.28-2.23-3.45-3.76-6.22-7.5-12.46-11.27-18.68-.48-.8-.81-1.75-1.85-2.23-1.75 1.02-3.17 2.51-4.57 4.01-2.79 3.03-5.58 6.05-8.36 9.09-4.27 4.65-8.53 9.31-12.8 13.95-3.42 3.73-3.55 3.54-5.97-.54-2.73-4.6-5.54-9.15-8.29-13.74-1.84-3.07-1.83-3.6.48-6.13 7.51-8.2 15.05-16.36 22.56-24.54 1.02-1.11 2.01-2.24 2.97-3.41.55-.67.52-1.53-.06-2.28-.41-.52-.93-.96-1.33-1.36ZM574.13 31.69c.86-.75 1.83-.85 2.77-.99 7.72-1.21 15.45-2.38 23.17-3.59 3.25-.51 6.49-1.09 9.73-1.64.67-.12 1.03-.9.79-1.61-.37-1.09-1.08-1.76-2.04-1.71-1.64.07-3.29.17-4.91.4-6.92 1-13.83 2.05-20.75 3.09-1.35.2-2.7.52-4.06.67-1.49.17-3.01.28-4.51.27-2.18-.01-3.96-.99-5.39-2.6-.36-.41-.7-.85-1.01-1.3-2.56-3.73-5.13-7.46-7.66-11.22-.53-.79-.95-1.67-1.34-2.53-.15-.34-.09-.78-.13-1.31.79-.27 1.55-.61 2.33-.79 6.15-1.44 12.35-2.57 18.6-3.45 5.98-.85 11.96-1.63 17.96-2.23 5.18-.52 10.4-.75 15.6-1.1.82-.05 1.64-.05 2.47-.04 2.2.03 4 .94 5.36 2.61.78.95 1.41 2.02 2.05 3.08 6.89 11.54 13.75 23.1 20.65 34.65 5.41 9.07 10.85 18.13 16.26 27.2.63 1.05 1.14 2.18 1.64 3.29.07.16-.12.58-.3.67-.35.18-.78.28-1.18.31-3.56.24-7.12.4-10.68.68-4.92.39-9.84.79-14.75 1.3-10.51 1.09-20.89 3.05-31.29 4.85-.54.09-1.08.19-1.63.21-.72.03-1.35-.26-1.83-.78-.36-.4-.68-.86-.96-1.33-3.53-5.88-7.05-11.77-10.56-17.66-.21-.35-.39-.74-.47-1.14-.05-.22.06-.59.22-.71.33-.22.73-.37 1.13-.46 3.75-.79 7.5-1.65 11.28-2.33 7.83-1.4 15.72-2.4 23.62-3.38.4-.05.81-.14 1.18-.31.2-.1.44-.41.43-.61-.11-1.55-.73-2.9-1.8-4.02-.5-.52-1.15-.8-1.84-.79-1.23.02-2.47.02-3.69.21-9.63 1.47-19.24 2.97-28.86 4.47-.27.04-.55.07-.81.13-2.43.46-4.19-.26-5.49-2.51-2.81-4.87-5.79-9.64-8.68-14.47-.27-.46-.4-1-.58-1.47h-.02Zm47.84 182.2c-.48.16-.93.19-1.2.42-.85.7-1.64 1.46-2.44 2.21-5.3 4.98-10.59 9.96-15.89 14.94-.59.56-1.24 1.07-1.91 1.54-.17.11-.54.04-.75-.07-.23-.12-.42-.35-.56-.58-4.11-6.48-8.22-12.98-12.32-19.47-.07-.12-.12-.25-.19-.37-.26-.48-.21-1.18.14-1.53.78-.78 1.56-1.54 2.36-2.3 6.52-6.29 13.12-12.49 19.54-18.87 12.75-12.68 24.97-25.85 36.45-39.7.59-.72 1.04-1.65 2.29-1.78.52.7 1.16 1.42 1.65 2.23 3.14 5.16 6.25 10.33 9.36 15.49 1.9 3.15 1.91 4.63-.77 7.74-3.49 4.06-6.95 8.13-10.43 12.2-.62.73-1.26 1.45-1.86 2.2-.95 1.18-1.16 2.46-.37 3.82.62 1.07 1.23 2.14 1.87 3.2 8 13.27 16.01 26.53 24.02 39.81.57.94 1.12 1.88 1.6 2.87.61 1.24.35 2.4-.5 3.45-.26.32-.53.63-.81.93-5.74 6.09-11.48 12.18-17.24 18.25-.56.59-1.2 1.11-1.85 1.6-.14.11-.62.02-.73-.13-.65-.87-1.29-1.77-1.85-2.7-6.11-10.09-12.22-20.18-18.32-30.27-2.55-4.22-5.11-8.45-7.67-12.67-.49-.81-1.04-1.6-1.58-2.43H622ZM30.47 433.6c-.31-.19-.72-.32-.95-.6a29.6 29.6 0 0 1-1.91-2.68c-2.11-3.37-4.19-6.76-6.28-10.15-.21-.35-.4-.72-.61-1.08-1.36-2.41-1.62-4.93-.63-7.53.39-1.02.82-2.03 1.27-3.04 2.19-4.88 4.4-9.76 6.57-14.64.44-1 .89-2.01 1.2-3.06.32-1.09.19-2.16-.65-3.07-.51-.56-1.34-.57-1.72.07-.69 1.18-1.37 2.38-2.01 3.59-2.82 5.35-4.98 10.99-7.12 16.63-.39 1.02-.84 2.01-1.32 2.99-.07.14-.55.24-.7.14-.33-.22-.63-.54-.84-.87-2.98-4.77-5.94-9.55-8.9-14.34-.29-.47-.53-.96-.77-1.45-.76-1.55-.88-3.17-.36-4.81.49-1.57 1.05-3.12 1.63-4.66 3.14-8.37 6.97-16.42 11.46-24.14 2.69-4.62 5.6-9.11 8.43-13.66.43-.69.82-1.44 1.75-1.77.34.37.75.74 1.05 1.19 1.14 1.72 2.28 3.43 3.33 5.19 11.85 19.77 23.69 39.55 35.52 59.32.63 1.05 1.22 2.15 1.72 3.27.65 1.45.63 2.94-.06 4.39-.42.86-.87 1.71-1.39 2.52-7.66 11.77-14 24.22-19.33 37.19-.36.88-.8 1.74-1.24 2.59-.33.64-1.22.73-1.7.18-.45-.51-.91-1.03-1.27-1.6-2.98-4.77-5.95-9.55-8.88-14.35-.5-.81-.87-1.71-1.22-2.6a4.663 4.663 0 0 1-.09-3.23c.44-1.3.93-2.58 1.46-3.84 2.36-5.56 4.74-11.1 7.11-16.65.54-1.26 1.09-2.52 1.31-3.89.29-1.76-.94-3.95-2.69-4.63-.18-.07-.58.07-.7.25-.46.67-.87 1.39-1.26 2.11-3.08 5.84-5.61 11.91-7.93 18.07-.29.77-.63 1.52-.96 2.26-.05.12-.19.2-.34.35v.03Zm703.82-293.54c.06 4.45-.99 9.27-2.82 13.89-3.51 8.81-7.61 17.33-12.48 25.47-.21.35-.41.71-.64 1.05-2.85 4.26-2.66 4.45-5.33.03-12.48-20.67-24.97-41.34-37.45-62.02-.57-.94-1.11-1.89-1.61-2.87-.92-1.83-.94-3.71-.03-5.55.61-1.23 1.31-2.41 2.01-3.59 4.55-7.69 8.55-15.64 11.78-23.98.84-2.17 1.54-4.4 2.36-6.59.38-1.02.79-2.06 1.37-2.98 1.3-2.08 3.72-2.94 6.08-2.38 1.23.29 2.32.82 3.34 1.54 2.04 1.43 3.79 3.17 5.33 5.12 1.1 1.4 2.17 2.84 3.13 4.34 3.03 4.74 6.06 9.49 8.96 14.3 3.41 5.65 6.38 11.52 8.78 17.67 1.34 3.45 2.79 6.86 4.14 10.31a47.48 47.48 0 0 1 2.47 8.7c.43 2.31.61 4.62.62 7.52Zm-22.75-.46c.73-.17 1.06-.56 1.28-1.09 1.01-2.4 1.95-4.83 3.07-7.18 1.41-2.96 1.73-5.95 1.16-9.19-1.1-6.2-3.43-11.82-7.28-16.79-.93-1.2-1.95-2.29-3.21-3.15-1.8-1.24-3.45-.9-4.47.97-.33.6-.59 1.24-.86 1.86-.99 2.26-1.98 4.51-2.97 6.78-.27.63-.56 1.25-.77 1.91-.34 1.08-.32 2.16.15 3.21.22.5.45 1.01.73 1.47 3.99 6.55 7.98 13.11 11.99 19.65.35.57.81 1.08 1.18 1.55h-.02ZM425.43 428.86c-.06.12-.1.29-.19.36-.55.4-1.08.84-1.67 1.16-9.37 5.15-18.74 10.27-28.12 15.4-.48.26-.97.5-1.47.74-.46.22-1.23.06-1.5-.32-.47-.67-.94-1.35-1.37-2.05-13.42-21.67-26.84-43.35-40.26-65.02-.43-.7-.82-1.42-1.17-2.16-.09-.19.02-.57.16-.75.25-.32.56-.6.9-.81 1.97-1.24 3.91-2.54 5.94-3.67 7.44-4.11 14.91-8.15 22.36-12.23 3.68-2.02 4.04-1.86 6.1 1.58 8.45 14.11 16.94 28.19 25.41 42.29 4.45 7.4 8.89 14.8 13.33 22.21.49.82.97 1.65 1.41 2.5.12.22.08.52.11.78ZM44.54 481.44c-.1.88.44 1.53.85 2.23a46330.252 46330.252 0 0 1 24.25 40.6c.49.81.9 1.68 1.33 2.52.05.1.03.33-.05.39-.19.16-.42.28-.66.36-.11.04-.27 0-.4-.04-7.54-2.68-13.97-6.94-18.87-13.34-1.5-1.96-3-3.93-4.33-6-10.15-15.81-20.26-31.64-29.55-47.97a407.17 407.17 0 0 1-11.9-22.55c-1.45-2.96-2.78-5.96-3.77-9.11-1.39-4.38-1.57-8.89-1.35-13.43.23-4.94 1.16-9.8 1.97-14.66.08-.47.49-.89.78-.8.25.08.56.14.7.33.57.78 1.1 1.57 1.6 2.39 15.94 25.76 31.88 51.53 47.82 77.3.57.92 1.05 1.9 1.53 2.87.14.29-.07.58-.39.61-.39.03-.8.02-1.18-.08-2.25-.57-4.5-1.19-6.76-1.77-.54-.14-1.08-.19-1.58.13v.02Zm46.3-92.31c-.06.34-.07.63-.18.87-.17.37-.38.73-.63 1.05-4.57 6.01-9.14 12.01-13.72 18.01-.25.32-.56.6-.85.89-.23.24-.87.16-1.08-.16-.75-1.15-1.53-2.28-2.24-3.45-7.45-12.33-14.9-24.66-22.34-36.99-5.03-8.34-10.07-16.67-15.1-25.01-.64-1.05-1.29-2.11-1.87-3.2-.64-1.2-.52-2.38.3-3.47.25-.33.49-.66.74-.99 3.98-5.24 7.96-10.49 11.96-15.72.49-.65 1.09-1.22 1.66-1.81.37-.39 1.11-.28 1.43.2.6.92 1.19 1.84 1.76 2.78 4.19 6.92 8.38 13.85 12.56 20.77 8.44 13.97 16.87 27.95 25.3 41.93.64 1.05 1.27 2.11 1.87 3.2.2.35.29.76.41 1.09Z"/>   <path d="M668.51 28.67c1.98.03 4.07.68 6.14 1.42s4.09 1.6 6.14 2.38c1.02.39 2.06.75 3.1 1.05.19.06.57-.12.67-.31.11-.19.08-.58-.05-.77-.4-.55-.8-1.14-1.34-1.52-.66-.47-1.44-.8-2.21-1.09-3.98-1.49-7.92-3.12-11.97-4.39-4.43-1.39-7.74-3.87-9.88-8.06-1.62-3.17-3.62-6.14-5.43-9.21-.56-.94-1.1-1.9-1.56-2.89-.15-.32-.06-.8.04-1.18.11-.41.91-.71 1.39-.62.13.03.28.02.41.06 8.05 2.41 15.79 5.51 22.82 10.21.34.23.68.47 1.02.69 2.77 1.84 5.15 4.11 7.06 6.84 4.09 5.85 8.26 11.63 12.22 17.57 8.99 13.48 17.1 27.49 24.95 41.65 2.46 4.44 4.91 8.88 7.36 13.33 1.92 3.49 3.74 7.02 5.23 10.72 1.44 3.58 2.43 7.28 2.97 11.1.14.95.32 1.9.47 2.84.1.65.37 1.31-.14 1.92-1.09.12-1.31-.84-1.73-1.47-.69-1.02-1.28-2.11-1.92-3.16-3.85-6.33-7.62-12.71-11.59-18.96-7.77-12.29-15.66-24.51-23.49-36.76-.52-.81-1.03-1.62-1.6-2.39-1.92-2.64-4.4-4.47-7.58-5.34-2.11-.58-4.2-1.27-6.29-1.92-.65-.2-1.3-.46-1.95-.64-2.79-.8-4.75-2.52-6.19-5.05-2.09-3.7-4.37-7.29-6.55-10.95-.7-1.18-1.32-2.4-1.93-3.63-.44-.89.11-1.56 1.42-1.47h.01ZM632.91.75c3.16 0 6.29.32 9.41.77 2.18.32 3.83 1.4 5.08 3.15.4.56.75 1.15 1.1 1.73 12.18 20.34 24.36 40.68 36.52 61.03.98 1.64 2.08 3.23 2.52 5.13.04.18-.18.5-.36.63-.21.13-.52.17-.78.16-1.78-.08-3.56-.16-5.33-.29-2.05-.16-4.1-.36-6.14-.55-.68-.06-1.37-.09-2.05-.19-3.95-.61-4.57-1-6.5-4.23-10.62-17.76-21.27-35.5-31.9-53.25-1.97-3.29-3.94-6.59-5.89-9.89-.49-.82-.97-1.65-1.42-2.5-.52-.97-.18-1.68.83-1.69 1.64-.02 3.29 0 4.93 0h-.01Z"/> </svg>