<svg xmlns="http://www.w3.org/2000/svg" viewBox="-0.01 0 661.17 539.1">   <path d="M443.78 0h25.93c.58.26 1.15.7 1.76.77 32.23 3.82 59.91 17 83.01 39.89 1.36 1.35 4.7 1.57 6.87 1.12 26.58-5.55 51.76-14.93 75.44-28.25 1.55-.87 3.26-1.48 5.9-2.66-10.53 31.49-29.63 54.83-55.84 73 25.47-2.27 49.43-9.76 74.31-19.72-16.31 23.95-33.99 44.33-55.76 60.6-8.79 6.57-14.24 13.08-11.53 24.43.54 2.25.11 4.73.05 7.11-1.7 74.71-22.69 143.68-62.55 206.77-86.06 136.2-232.56 192.65-382.56 171.85-44.4-6.16-86.38-20.51-125.84-41.9-7.79-4.22-15.33-8.92-22.98-13.4 96.33 9 171.6-33.87 196.68-57.25-60.85-5.63-102.05-36.92-124.43-93.07 10.67 0 20.34.41 29.96-.12 9.39-.51 18.73-1.96 28.1-3.01-73.67-19.94-107.96-85.47-105.46-135.19 9.42 3.57 18.63 7.84 28.28 10.5 9.69 2.68 19.81 3.76 29.75 5.54.09-.59.19-1.17.28-1.76C13.86 154.58 15.5 69.88 44.27 25.71c73.48 86.25 166.29 133.98 279.54 141.51-.79-9.68-1.78-18.25-2.15-26.84-2.5-57.46 33.67-111.79 87.91-131.36 11.04-4 22.78-6.07 34.21-9.02Z"/> </svg>